<svg version="1.2" xmlns="http://www.w3.org/2000/svg" viewBox="0 0 576 134" width="576" height="134">
	<title>evosoft_logo</title>
	<style>
		.s0 { fill: #0174c3 } 
	</style>
	<path id="evosoft" class="s0" aria-label="evosoft"  d="m70.2 86.7h-52.7q0.8 12.1 7.2 18.4 6.6 6.3 18.8 6.3 11.7 0 19-6l5.7 8.8q-5.1 4.5-11.7 6.6-6.4 2.2-14.2 2.2-8.7 0-15.8-2.6-7-2.7-12-7.8-4.9-5.1-7.6-12.6-2.7-7.5-2.7-17.3 0-9.1 2.7-16.3 2.7-7.2 7.5-12.2 4.9-4.9 11.4-7.5 6.6-2.7 14.2-2.7 7.7 0 13.4 2.6 5.8 2.4 9.7 6.9 3.9 4.5 5.9 10.8 1.9 6.2 1.9 13.5 0 4.7-0.7 8.9zm-29.9-31.5q-9.3 0-15.3 5.6-6 5.8-7.2 15.7h40.5v-1.3q0-9.5-4.6-14.8-4.7-5.2-13.4-5.2zm39-9.2h14.1l22.7 60.9 22.9-60.9h13.6l-29.9 75h-13.4zm156.1 37.5q0 8.8-2.7 16.2-2.8 7.2-7.5 12.5-4.8 5-11.7 7.9-6.9 2.9-15.2 2.9-8.4 0-15.3-2.9-6.7-2.9-11.5-7.9-4.8-5.3-7.5-12.5-2.7-7.4-2.7-16.2 0-8.8 2.7-16 2.7-7.4 7.5-12.5 4.8-5.3 11.5-8.1 6.9-2.9 15.3-2.9 8.3 0 15.2 2.9 6.9 2.8 11.7 8.1 4.7 5.1 7.5 12.5 2.7 7.2 2.7 16zm-14 0q0-13.3-6-20.5-6-7.4-17.1-7.4-11.1 0-17.1 7.4-6 7.2-6 20.5 0 13.3 6 20.7 6 7.2 17.1 7.2 11.1 0 17.1-7.2 6-7.4 6-20.7zm56.9-28.3q-6.2 0-10.4 2.4-4.2 2.4-4.2 7.9 0 2.6 1.7 5.2 1.8 2.6 7.8 4.4l13.7 4.2q10 3 14.5 7.9 4.5 4.8 4.5 12.5 0 10.3-7.5 16.8-7.4 6.5-21.3 6.5-9-0.1-16.4-2.6-7.2-2.7-12.7-7.5l6.1-9.3q4.8 3.7 10.5 6 5.8 2.1 12.6 2.1 6.9 0 11.1-2.9 4.4-2.8 4.4-8.8 0-3.8-2.3-6-2.1-2.3-7.3-3.9l-14.3-4.2q-9.3-2.7-13.8-7.7-4.5-4.9-4.5-12.5 0-5.5 2.1-9.5 2.1-4 5.8-6.7 3.8-2.8 8.8-4.1 5.1-1.4 10.9-1.4 7.1 0 14 2 7 1.8 12 5.7l-5 9.3q-4.2-2.5-9.4-4.2-5.1-1.6-11.4-1.6zm115.5 28.3q0 8.8-2.8 16.2-2.7 7.2-7.5 12.5-4.7 5-11.7 7.9-6.9 2.9-15.1 2.9-8.4 0-15.3-2.9-6.8-2.9-11.6-7.9-4.7-5.3-7.5-12.5-2.7-7.4-2.7-16.2 0-8.8 2.7-16.1 2.8-7.3 7.5-12.4 4.8-5.3 11.6-8.1 6.9-2.9 15.3-2.9 8.2 0 15.1 2.9 7 2.8 11.7 8.1 4.8 5.1 7.5 12.5 2.8 7.2 2.8 16zm-14 0q0-13.3-6-20.5-6-7.4-17.1-7.4-11.1 0-17.1 7.4-6 7.2-6 20.5 0 13.3 6 20.7 6 7.2 17.1 7.2 11.1 0 17.1-7.2 6-7.4 6-20.7zm50.3-37.5h20.2v10.8h-20.2v64.2h-13.4v-64.2h-12.8l0.1-10.8h12.7v-8q0-12.1 6.8-18.5 6.8-6.5 19-6.5 2.7 0 4.8 0.3 2.1 0.2 3.8 0.4v10.4h-2.3q-4.5 0-8.1 0.6-3.4 0.5-5.9 2-2.2 1.5-3.5 4.5-1.2 2.8-1.2 7.5zm72.9 64.5l-0.1 10.3q-1.9 0.3-3.8 0.6-2 0.1-4.4 0.1-12.6 0-18.3-6-5.5-6-5.5-19.8v-38.9l-12.8-0.1v-10.7h12.8v-18.9h13.3v18.9h18.7v10.8l-18.7-0.1v40.5q0 7.7 3.3 10.5 3.4 2.8 11.7 2.8z"/>
	<path id="VN" class="s0" aria-label="VN"  d="m516.9 11.9h6.9l7 23 6.9-23h6.8l-10.6 29.1h-6.4zm31.1 0h6.8l11.3 20.8v-20.8h5.8v29.1h-6.8l-11.3-20.5v20.5h-5.8z"/>
</svg>